G04 DipTrace 4.0.0.2*
G04 2 - Bottom.gbr*
%MOIN*%
G04 #@! TF.FileFunction,Copper,L2,Bot*
G04 #@! TF.Part,Single*
G04 #@! TA.AperFunction,Conductor*
%ADD12C,0.012992*%
G04 #@! TA.AperFunction,CopperBalancing*
%ADD13C,0.025*%
G04 #@! TA.AperFunction,ComponentPad*
%ADD15R,0.059055X0.059055*%
%ADD16C,0.059055*%
G04 #@! TA.AperFunction,ViaPad*
%ADD21C,0.04*%
%FSLAX26Y26*%
G04*
G70*
G90*
G75*
G01*
G04 Bottom*
%LPD*%
X1386857Y1422806D2*
D12*
X1436381Y1373283D1*
X1553873D1*
X1438401Y1877700D2*
Y1870700D1*
X1396401D1*
X573905Y705196D2*
X794409Y925700D1*
X1409968Y1206133D2*
X1431401Y1227567D1*
X850397Y472432D2*
Y1683015D1*
X635133Y1726739D2*
X1514905D1*
X1567897Y1673747D1*
X995401Y694700D2*
Y1003621D1*
X1085480Y1093700D1*
X1095401Y694700D2*
X1144417Y743716D1*
Y1629731D1*
X1170893Y1656208D1*
X1195401Y694700D2*
Y1603216D1*
D21*
X1438401Y1877700D3*
X573905Y705196D3*
X1409968Y1206133D3*
X1553873Y1373283D3*
X1386857Y1422806D3*
X1085480Y1093700D3*
X1170893Y1656208D3*
X1195401Y1603216D3*
X850397Y1683015D3*
Y472432D3*
X1567897Y1673747D3*
X635133Y1726739D3*
X1456424Y951968D3*
X609115Y1880003D2*
D13*
X1556230D1*
X543268Y1830003D2*
X1622078D1*
X500458Y1780003D2*
X1664888D1*
X470889Y1730003D2*
X586245D1*
X1560800D2*
X1694456D1*
X450794Y1680003D2*
X801514D1*
X899275D2*
X1128455D1*
X1213333D2*
X1512487D1*
X1616456D2*
X1714551D1*
X439491Y1630003D2*
X814899D1*
X885890D2*
X1108934D1*
X1235904D2*
X1549663D1*
X1586134D2*
X1725855D1*
X435005Y1580003D2*
X814899D1*
X885890D2*
X1108934D1*
X1238165D2*
X1730340D1*
X434718Y1530003D2*
X814899D1*
X885890D2*
X1108934D1*
X1230880D2*
X1730663D1*
X434718Y1480003D2*
X814899D1*
X885890D2*
X1108934D1*
X1230880D2*
X1730663D1*
X434718Y1430003D2*
X814899D1*
X885890D2*
X1108934D1*
X1230880D2*
X1338413D1*
X1435277D2*
X1730663D1*
X434718Y1380003D2*
X814899D1*
X885890D2*
X1108934D1*
X1230880D2*
X1366223D1*
X1602389D2*
X1730663D1*
X434718Y1330003D2*
X814899D1*
X885890D2*
X1108934D1*
X1230880D2*
X1534413D1*
X1573359D2*
X1730663D1*
X434718Y1280003D2*
X814899D1*
X885890D2*
X1108934D1*
X1230880D2*
X1730663D1*
X434718Y1230003D2*
X814899D1*
X885890D2*
X1108934D1*
X1230880D2*
X1730663D1*
X434718Y1180003D2*
X814899D1*
X885890D2*
X1108934D1*
X1230880D2*
X1730663D1*
X434718Y1130003D2*
X814899D1*
X885890D2*
X1053923D1*
X1230880D2*
X1730663D1*
X434718Y1080003D2*
X814899D1*
X885890D2*
X1022632D1*
X1230880D2*
X1730663D1*
X434718Y1030003D2*
X814899D1*
X885890D2*
X972646D1*
X1070945D2*
X1108934D1*
X1230880D2*
X1730663D1*
X434718Y980003D2*
X814899D1*
X885890D2*
X959907D1*
X1030898D2*
X1108934D1*
X1230880D2*
X1730663D1*
X434718Y930003D2*
X814899D1*
X885890D2*
X959907D1*
X1030898D2*
X1108934D1*
X1230880D2*
X1730663D1*
X434718Y880003D2*
X814899D1*
X885890D2*
X959907D1*
X1030898D2*
X1108934D1*
X1230880D2*
X1730663D1*
X434718Y830003D2*
X814899D1*
X885890D2*
X959907D1*
X1030898D2*
X1108934D1*
X1230880D2*
X1730663D1*
X435113Y780003D2*
X814899D1*
X885890D2*
X959907D1*
X1030898D2*
X1108934D1*
X1230880D2*
X1730233D1*
X439813Y730003D2*
X814899D1*
X885890D2*
X949393D1*
X1041376D2*
X1049416D1*
X1253918D2*
X1725532D1*
X451584Y680003D2*
X814899D1*
X885890D2*
X938843D1*
X1253918D2*
X1713762D1*
X471930Y630003D2*
X814899D1*
X885890D2*
X1693415D1*
X502073Y580003D2*
X814899D1*
X885890D2*
X1663273D1*
X545672Y530003D2*
X814899D1*
X885890D2*
X1619673D1*
X612775Y480003D2*
X802016D1*
X898772D2*
X1552570D1*
X482200Y1753088D2*
Y609112D1*
X532200Y1818936D2*
Y543265D1*
X582200Y1861745D2*
Y500455D1*
X632200Y1891314D2*
Y1775635D1*
Y1677839D2*
Y470886D1*
X682200Y1911409D2*
Y1762215D1*
Y1691260D2*
Y450791D1*
X732200Y1922713D2*
Y1762215D1*
Y1691260D2*
Y439488D1*
X782200Y1927198D2*
Y1762215D1*
Y1691260D2*
Y435002D1*
X832200Y1927485D2*
Y1762215D1*
X882200Y1927485D2*
Y1762215D1*
X932200Y1927485D2*
Y1762215D1*
Y1691260D2*
Y434715D1*
X982200Y1927485D2*
Y1762215D1*
Y1691260D2*
Y1039579D1*
Y637772D2*
Y434715D1*
X1032200Y1927485D2*
Y1762215D1*
Y1691260D2*
Y1089566D1*
Y991267D2*
Y739444D1*
Y649972D2*
Y434715D1*
X1082200Y1927485D2*
Y1762215D1*
Y1691260D2*
Y1142567D1*
Y1041289D2*
Y751644D1*
Y637772D2*
Y434715D1*
X1132200Y1927485D2*
Y1762215D1*
Y649972D2*
Y434715D1*
X1182200Y1927485D2*
Y1762215D1*
Y636193D2*
Y434715D1*
X1232200Y1927485D2*
Y1762215D1*
Y1691260D2*
Y1634108D1*
Y1572304D2*
Y753223D1*
Y636193D2*
Y434715D1*
X1282200Y1927485D2*
Y1762215D1*
Y1691260D2*
Y434715D1*
X1332200Y1927485D2*
Y1762215D1*
Y1691260D2*
Y434715D1*
X1382200Y1927234D2*
Y1762215D1*
Y1691260D2*
Y1471553D1*
Y1374043D2*
Y434966D1*
X1432200Y1922856D2*
Y1762215D1*
Y1691260D2*
Y1435561D1*
Y1338052D2*
Y439344D1*
X1482200Y1911768D2*
Y1762215D1*
Y1691260D2*
Y1408756D1*
Y1337800D2*
Y450468D1*
X1532200Y1891745D2*
Y1757334D1*
Y1641452D2*
Y1416901D1*
Y1329655D2*
Y470456D1*
X1582200Y1862463D2*
Y1720481D1*
Y1627027D2*
Y1412631D1*
Y1333925D2*
Y499737D1*
X1632200Y1820012D2*
Y542224D1*
X1682200Y1754703D2*
Y607533D1*
X1732200Y1590748D2*
Y771416D1*
X1228412Y750717D2*
X1251418D1*
Y638683D1*
X1139384D1*
Y660034D1*
X1135011Y655090D1*
X1128327Y649381D1*
X1120832Y644788D1*
X1112711Y641425D1*
X1104164Y639373D1*
X1095401Y638683D1*
X1086638Y639373D1*
X1078091Y641425D1*
X1069970Y644788D1*
X1062475Y649381D1*
X1055791Y655090D1*
X1050082Y661774D1*
X1045410Y669440D1*
X1040720Y661774D1*
X1035011Y655090D1*
X1028327Y649381D1*
X1020832Y644788D1*
X1012711Y641425D1*
X1004164Y639373D1*
X995401Y638683D1*
X986638Y639373D1*
X978091Y641425D1*
X969970Y644788D1*
X962475Y649381D1*
X955791Y655090D1*
X950082Y661774D1*
X945489Y669269D1*
X942125Y677390D1*
X940073Y685937D1*
X939384Y694700D1*
X940073Y703463D1*
X942125Y712010D1*
X945489Y720131D1*
X950082Y727626D1*
X955791Y734310D1*
X962407Y739966D1*
X962517Y1006209D1*
X963327Y1011322D1*
X964926Y1016244D1*
X967276Y1020856D1*
X970318Y1025044D1*
X1017485Y1072354D1*
X1038977Y1093846D1*
X1039562Y1100973D1*
X1041265Y1108066D1*
X1044057Y1114806D1*
X1047869Y1121026D1*
X1052606Y1126573D1*
X1058154Y1131311D1*
X1064374Y1135122D1*
X1071113Y1137914D1*
X1078207Y1139617D1*
X1085480Y1140190D1*
X1092752Y1139617D1*
X1099846Y1137914D1*
X1106585Y1135122D1*
X1111442Y1132222D1*
X1111533Y1632320D1*
X1112342Y1637432D1*
X1113942Y1642355D1*
X1116292Y1646966D1*
X1119334Y1651154D1*
X1124428Y1656391D1*
X1124976Y1663480D1*
X1126679Y1670574D1*
X1129470Y1677314D1*
X1133282Y1683534D1*
X1138020Y1689081D1*
X1143489Y1693757D1*
X895602Y1693754D1*
X896743Y1686662D1*
Y1679367D1*
X895602Y1672162D1*
X893348Y1665224D1*
X890036Y1658724D1*
X885748Y1652822D1*
X883376Y1650257D1*
X883382Y505204D1*
X888008Y499758D1*
X891819Y493538D1*
X894611Y486798D1*
X896314Y479705D1*
X896886Y472432D1*
X896314Y465160D1*
X894611Y458066D1*
X891819Y451326D1*
X888008Y445106D1*
X883270Y439559D1*
X877723Y434821D1*
X873630Y432201D1*
X1377008Y432200D1*
X1412769Y433957D1*
X1447208Y439066D1*
X1481017Y447532D1*
X1513835Y459271D1*
X1545342Y474169D1*
X1575239Y492085D1*
X1603234Y512844D1*
X1629061Y536248D1*
X1652470Y562071D1*
X1673234Y590063D1*
X1691155Y619955D1*
X1706059Y651460D1*
X1717804Y684275D1*
X1726275Y718083D1*
X1731393Y752558D1*
X1733153Y788329D1*
Y1573852D1*
X1731396Y1609619D1*
X1726287Y1644059D1*
X1717822Y1677868D1*
X1706082Y1710685D1*
X1691184Y1742193D1*
X1673268Y1772088D1*
X1652508Y1800085D1*
X1629105Y1825910D1*
X1603283Y1849319D1*
X1575290Y1870083D1*
X1545397Y1888004D1*
X1513893Y1902908D1*
X1481077Y1914653D1*
X1447270Y1923124D1*
X1412795Y1928241D1*
X1377024Y1930001D1*
X788345Y1930003D1*
X752584Y1928246D1*
X718144Y1923137D1*
X684335Y1914671D1*
X651518Y1902933D1*
X620009Y1888034D1*
X590114Y1870118D1*
X562118Y1849359D1*
X536292Y1825955D1*
X512883Y1800132D1*
X492119Y1772139D1*
X474198Y1742247D1*
X459294Y1710742D1*
X447550Y1677927D1*
X439079Y1644119D1*
X433963Y1609643D1*
X432202Y1573872D1*
X432200Y788351D1*
X433957Y752584D1*
X439066Y718144D1*
X447532Y684334D1*
X459271Y651518D1*
X474170Y620010D1*
X492085Y590114D1*
X512845Y562117D1*
X536249Y536292D1*
X562071Y512883D1*
X590064Y492118D1*
X619956Y474198D1*
X651463Y459293D1*
X684276Y447549D1*
X718086Y439077D1*
X752560Y433960D1*
X788330Y432201D1*
X827138Y432200D1*
X823071Y434821D1*
X817524Y439559D1*
X812786Y445106D1*
X808974Y451326D1*
X806183Y458066D1*
X804480Y465160D1*
X803907Y472432D1*
X804480Y479705D1*
X806183Y486798D1*
X808974Y493538D1*
X812786Y499758D1*
X817417Y505190D1*
X817411Y1650244D1*
X812786Y1655689D1*
X808974Y1661909D1*
X806183Y1668649D1*
X804480Y1675742D1*
X803907Y1683015D1*
X804480Y1690288D1*
X805167Y1693742D1*
X667881Y1693754D1*
X662459Y1689129D1*
X656239Y1685317D1*
X649499Y1682525D1*
X642406Y1680822D1*
X635133Y1680250D1*
X627861Y1680822D1*
X620767Y1682525D1*
X614027Y1685317D1*
X607807Y1689129D1*
X602260Y1693866D1*
X597522Y1699414D1*
X593711Y1705634D1*
X590919Y1712373D1*
X589216Y1719467D1*
X588644Y1726739D1*
X589216Y1734012D1*
X590919Y1741105D1*
X593711Y1747845D1*
X597522Y1754065D1*
X602260Y1759612D1*
X607807Y1764350D1*
X614027Y1768162D1*
X620767Y1770954D1*
X627861Y1772657D1*
X635133Y1773229D1*
X642406Y1772657D1*
X649499Y1770954D1*
X656239Y1768162D1*
X662459Y1764350D1*
X667891Y1759719D1*
X1517493Y1759623D1*
X1522605Y1758814D1*
X1527528Y1757214D1*
X1532140Y1754864D1*
X1536327Y1751822D1*
X1568070Y1720223D1*
X1575169Y1719664D1*
X1582263Y1717961D1*
X1589003Y1715170D1*
X1595223Y1711358D1*
X1600770Y1706620D1*
X1605508Y1701073D1*
X1609319Y1694853D1*
X1612111Y1688113D1*
X1613814Y1681020D1*
X1614386Y1673747D1*
X1613814Y1666475D1*
X1612111Y1659381D1*
X1609319Y1652641D1*
X1605508Y1646421D1*
X1600770Y1640874D1*
X1595223Y1636136D1*
X1589003Y1632325D1*
X1582263Y1629533D1*
X1575169Y1627830D1*
X1567897Y1627258D1*
X1560624Y1627830D1*
X1553531Y1629533D1*
X1546791Y1632325D1*
X1540571Y1636136D1*
X1535024Y1640874D1*
X1530286Y1646421D1*
X1526474Y1652641D1*
X1523683Y1659381D1*
X1521980Y1666475D1*
X1521414Y1673591D1*
X1501232Y1693763D1*
X1198321Y1693754D1*
X1203766Y1689081D1*
X1208504Y1683534D1*
X1212315Y1677314D1*
X1215107Y1670574D1*
X1216810Y1663480D1*
X1217382Y1656208D1*
X1216810Y1648935D1*
X1215970Y1644902D1*
X1222727Y1640827D1*
X1228274Y1636089D1*
X1233012Y1630542D1*
X1236823Y1624322D1*
X1239615Y1617582D1*
X1241318Y1610488D1*
X1241890Y1603216D1*
X1241318Y1595943D1*
X1239615Y1588850D1*
X1236823Y1582110D1*
X1233012Y1575890D1*
X1228380Y1570458D1*
X1228386Y750745D1*
X1045410Y719960D2*
X1050082Y727626D1*
X1055791Y734310D1*
X1062475Y740019D1*
X1069970Y744612D1*
X1078091Y747975D1*
X1086638Y750027D1*
X1095401Y750717D1*
X1104078Y750037D1*
X1111418Y757366D1*
X1111431Y1055126D1*
X1106585Y1052278D1*
X1099846Y1049486D1*
X1092752Y1047783D1*
X1085636Y1047217D1*
X1028405Y989976D1*
X1028386Y740009D1*
X1035011Y734310D1*
X1040720Y727626D1*
X1045391Y719960D1*
X1600219Y1369635D2*
X1599078Y1362430D1*
X1596824Y1355492D1*
X1593512Y1348992D1*
X1589224Y1343090D1*
X1584066Y1337932D1*
X1578164Y1333644D1*
X1571664Y1330332D1*
X1564726Y1328078D1*
X1557521Y1326936D1*
X1550226D1*
X1543020Y1328078D1*
X1536082Y1330332D1*
X1529583Y1333644D1*
X1523681Y1337932D1*
X1521115Y1340303D1*
X1433793Y1340399D1*
X1428681Y1341208D1*
X1423758Y1342808D1*
X1419146Y1345158D1*
X1414959Y1348200D1*
X1386694Y1376321D1*
X1379585Y1376889D1*
X1372491Y1378592D1*
X1365752Y1381384D1*
X1359532Y1385196D1*
X1353984Y1389933D1*
X1349247Y1395480D1*
X1345435Y1401701D1*
X1342643Y1408440D1*
X1340940Y1415534D1*
X1340368Y1422806D1*
X1340940Y1430079D1*
X1342643Y1437172D1*
X1345435Y1443912D1*
X1349247Y1450132D1*
X1353984Y1455679D1*
X1359532Y1460417D1*
X1365752Y1464229D1*
X1372491Y1467020D1*
X1379585Y1468723D1*
X1386857Y1469296D1*
X1394130Y1468723D1*
X1401224Y1467020D1*
X1407963Y1464229D1*
X1414183Y1460417D1*
X1419731Y1455679D1*
X1424468Y1450132D1*
X1428280Y1443912D1*
X1431072Y1437172D1*
X1432775Y1430079D1*
X1433341Y1422963D1*
X1450043Y1406269D1*
X1521099Y1406268D1*
X1526547Y1410893D1*
X1532767Y1414705D1*
X1539507Y1417497D1*
X1546601Y1419200D1*
X1553873Y1419772D1*
X1561146Y1419200D1*
X1568239Y1417497D1*
X1574979Y1414705D1*
X1581199Y1410893D1*
X1586746Y1406156D1*
X1591484Y1400609D1*
X1595296Y1394388D1*
X1598087Y1387649D1*
X1599790Y1380555D1*
X1600363Y1373283D1*
X1600219Y1369635D1*
D15*
X1195401Y694700D3*
D16*
X1095401D3*
X995401D3*
M02*
