G04 DipTrace 4.0.0.2*
G04 TopAssembly.gbr*
%MOIN*%
G04 #@! TF.FileFunction,Drawing,Top*
G04 #@! TF.Part,Single*
%ADD10C,0.004724*%
%FSLAX26Y26*%
G04*
G70*
G90*
G75*
G01*
G04 TopAssy*
%LPD*%
X648708Y1316960D2*
D10*
Y1374440D1*
X562094D1*
Y1316960D1*
X648708D1*
X648709Y833961D2*
X648707Y891441D1*
X562093Y891439D1*
X562094Y833959D1*
X648709Y833961D1*
Y1008961D2*
X648707Y1066441D1*
X562093Y1066439D1*
X562094Y1008959D1*
X648709Y1008961D1*
Y1162961D2*
X648707Y1220441D1*
X562093Y1220439D1*
X562094Y1162959D1*
X648709Y1162961D1*
X1535958Y1332221D2*
X1480840Y1332219D1*
X1480843Y1247179D1*
X1535962Y1247181D1*
X1535958Y1332221D1*
X1535957Y1150221D2*
X1480839Y1150218D1*
X1480844Y1065179D1*
X1535962Y1065182D1*
X1535957Y1150221D1*
X1228843Y463179D2*
X1283961Y463181D1*
X1283958Y548221D1*
X1228840Y548219D1*
X1228843Y463179D1*
X1081843D2*
X1136961Y463181D1*
X1136958Y548221D1*
X1081840Y548219D1*
X1081843Y463179D1*
X913843Y463180D2*
X968961Y463181D1*
X968959Y548220D1*
X913841Y548219D1*
X913843Y463180D1*
X752843D2*
X807961Y463181D1*
X807959Y548220D1*
X752841Y548219D1*
X752843Y463180D1*
X703921Y1605142D2*
X703920Y1660260D1*
X618880Y1660258D1*
X618882Y1605140D1*
X703921Y1605142D1*
X710921Y1766143D2*
X710919Y1821261D1*
X625880Y1821257D1*
X625882Y1766139D1*
X710921Y1766143D1*
X1579708Y1757960D2*
Y1815440D1*
X1493094D1*
Y1757960D1*
X1579708D1*
X1311661Y1554392D2*
X1369142Y1554393D1*
X1369140Y1641008D1*
X1311660Y1641007D1*
X1311661Y1554392D1*
X1432141Y469393D2*
X1393690D1*
X1374661Y488422D1*
Y556007D1*
X1432141D1*
Y469393D1*
X1487842Y876180D2*
X1542960D1*
Y961220D1*
X1487842D1*
Y876180D1*
M02*
