G04 DipTrace 4.0.0.2*
G04 TopSilk.gbr*
%MOIN*%
G04 #@! TF.FileFunction,Legend,Top*
G04 #@! TF.Part,Single*
%ADD10C,0.004724*%
%ADD14C,0.003937*%
%ADD39C,0.00772*%
%ADD40C,0.009264*%
%FSLAX26Y26*%
G04*
G70*
G90*
G75*
G01*
G04 TopSilk*
%LPD*%
X611306Y1316960D2*
D14*
X599495D1*
X611306Y1374440D2*
X599495D1*
X611307Y833960D2*
X599496D1*
X611306Y891440D2*
X599495D1*
X611307Y1008960D2*
X599496D1*
X611306Y1066440D2*
X599495D1*
X611307Y1162960D2*
X599496D1*
X611306Y1220440D2*
X599495D1*
X1245401Y744700D2*
D10*
Y644700D1*
X945401D1*
Y744700D2*
Y644700D1*
X1245401Y744700D2*
X945401D1*
X1535959Y1299937D2*
D14*
X1535960Y1279465D1*
X1480841Y1299935D2*
X1480842Y1279463D1*
X1535959Y1117938D2*
X1535960Y1097465D1*
X1480841Y1117935D2*
X1480842Y1097462D1*
X1228842Y495463D2*
X1228841Y515935D1*
X1283960Y495465D2*
Y515937D1*
X1081842Y495463D2*
X1081841Y515935D1*
X1136960Y495465D2*
Y515937D1*
X913842Y495463D2*
Y515936D1*
X968960Y495464D2*
Y515937D1*
X752842Y495463D2*
Y515936D1*
X807960Y495464D2*
Y515937D1*
X914931Y856670D2*
D10*
X1230305D1*
Y1329920D1*
X914931D1*
Y856670D1*
G36*
X1334646Y849999D2*
X1331204Y850225D1*
X1327821Y850898D1*
X1324554Y852007D1*
X1321460Y853532D1*
X1318592Y855449D1*
X1315999Y857723D1*
X1313724Y860317D1*
X1311808Y863185D1*
X1310282Y866279D1*
X1309173Y869545D1*
X1308500Y872928D1*
X1308275Y876371D1*
X1308500Y879813D1*
X1309173Y883196D1*
X1310282Y886462D1*
X1311808Y889556D1*
X1313724Y892424D1*
X1315999Y895018D1*
X1318592Y897292D1*
X1321460Y899209D1*
X1324554Y900735D1*
X1327821Y901843D1*
X1331204Y902516D1*
X1334646Y902742D1*
X1335431D1*
X1338873Y902516D1*
X1342256Y901843D1*
X1345523Y900735D1*
X1348617Y899209D1*
X1351485Y897292D1*
X1354078Y895018D1*
X1356353Y892424D1*
X1358269Y889556D1*
X1359795Y886462D1*
X1360904Y883196D1*
X1361577Y879813D1*
X1361802Y876371D1*
X1361577Y872928D1*
X1360904Y869545D1*
X1359795Y866279D1*
X1358269Y863185D1*
X1356353Y860317D1*
X1354078Y857723D1*
X1351485Y855449D1*
X1348617Y853532D1*
X1345523Y852007D1*
X1342256Y850898D1*
X1338873Y850225D1*
X1335431Y849999D1*
X1334646D1*
G37*
G36*
X1015336Y1123218D2*
X1132675D1*
Y1244878D1*
X1015336D1*
Y1123218D1*
G37*
X1381426Y2014180D2*
D10*
Y2112587D1*
X781401D1*
Y2014180D1*
X1381426D1*
X1351134Y1935445D2*
Y2014180D1*
X1311713Y1935445D2*
Y2014180D1*
X1251069Y1935445D2*
Y2014180D1*
X1211709Y1935445D2*
Y2014180D1*
X1351134Y2112587D2*
Y2309452D1*
X1311713Y2112587D2*
Y2309452D1*
X1351134D2*
X1331393Y2342527D1*
X1311713Y2309452D2*
X1331393Y2342527D1*
X1251069Y2112587D2*
Y2309452D1*
X1211709Y2112587D2*
Y2309452D1*
X1251069D2*
X1231389Y2342527D1*
X1211709Y2309452D2*
X1231389Y2342527D1*
X1151127Y1935445D2*
Y2014180D1*
X1111767Y1935445D2*
Y2014180D1*
X1051061Y1935445D2*
Y2014180D1*
X1011700Y1935445D2*
Y2014180D1*
X1151127Y2112587D2*
Y2309452D1*
X1111767Y2112587D2*
Y2309452D1*
X1151127D2*
X1131447Y2342527D1*
X1111767Y2309452D2*
X1131447Y2342527D1*
X1051061Y2112587D2*
Y2309452D1*
X1011700Y2112587D2*
Y2309452D1*
X1051061D2*
X1031381Y2342527D1*
X1011700Y2309452D2*
X1031381Y2342527D1*
X951056Y1935445D2*
Y2014180D1*
X911696Y1935445D2*
Y2014180D1*
X851113Y1935445D2*
Y2014180D1*
X811754Y1935445D2*
Y2014180D1*
X951056Y2112587D2*
Y2309452D1*
X911696Y2112587D2*
Y2309452D1*
X951056D2*
X931376Y2342527D1*
X911696Y2309452D2*
X931376Y2342527D1*
X851113Y2112587D2*
Y2309452D1*
X811754Y2112587D2*
Y2309452D1*
X851113D2*
X831434Y2342527D1*
X811754Y2309452D2*
X831434Y2342527D1*
G36*
X1384544Y1872511D2*
X1386344Y1872393D1*
X1388112Y1872041D1*
X1389820Y1871462D1*
X1391437Y1870664D1*
X1392937Y1869662D1*
X1394292Y1868473D1*
X1395481Y1867118D1*
X1396483Y1865618D1*
X1397281Y1864001D1*
X1397860Y1862294D1*
X1398212Y1860525D1*
X1398330Y1858726D1*
X1398212Y1856926D1*
X1397860Y1855158D1*
X1397281Y1853450D1*
X1396483Y1851833D1*
X1395481Y1850334D1*
X1394292Y1848978D1*
X1392937Y1847789D1*
X1391437Y1846787D1*
X1389820Y1845990D1*
X1388112Y1845410D1*
X1386344Y1845058D1*
X1384544Y1844940D1*
X1384539D1*
X1382740Y1845058D1*
X1380971Y1845410D1*
X1379264Y1845990D1*
X1377647Y1846787D1*
X1376147Y1847789D1*
X1374791Y1848978D1*
X1373603Y1850334D1*
X1372601Y1851833D1*
X1371803Y1853450D1*
X1371224Y1855158D1*
X1370872Y1856926D1*
X1370754Y1858726D1*
X1370872Y1860525D1*
X1371224Y1862294D1*
X1371803Y1864001D1*
X1372601Y1865618D1*
X1373603Y1867118D1*
X1374791Y1868473D1*
X1376147Y1869662D1*
X1377647Y1870664D1*
X1379264Y1871462D1*
X1380971Y1872041D1*
X1382740Y1872393D1*
X1384539Y1872511D1*
X1384544D1*
G37*
G36*
X1483407Y1567249D2*
X1482402Y1567314D1*
X1481414Y1567511D1*
X1480460Y1567835D1*
X1479556Y1568280D1*
X1478719Y1568840D1*
X1477961Y1569504D1*
X1477297Y1570262D1*
X1476737Y1571100D1*
X1476292Y1572003D1*
X1475968Y1572957D1*
X1475771Y1573945D1*
X1475705Y1574951D1*
X1475771Y1575956D1*
X1475968Y1576944D1*
X1476292Y1577898D1*
X1476737Y1578802D1*
X1477297Y1579639D1*
X1477961Y1580397D1*
X1478719Y1581061D1*
X1479556Y1581621D1*
X1480460Y1582066D1*
X1481414Y1582390D1*
X1482402Y1582587D1*
X1483407Y1582653D1*
X1483426D1*
X1484431Y1582587D1*
X1485419Y1582390D1*
X1486373Y1582066D1*
X1487277Y1581621D1*
X1488114Y1581061D1*
X1488872Y1580397D1*
X1489536Y1579639D1*
X1490096Y1578802D1*
X1490542Y1577898D1*
X1490865Y1576944D1*
X1491062Y1575956D1*
X1491128Y1574951D1*
X1491062Y1573945D1*
X1490865Y1572957D1*
X1490542Y1572003D1*
X1490096Y1571100D1*
X1489536Y1570262D1*
X1488872Y1569504D1*
X1488114Y1568840D1*
X1487277Y1568280D1*
X1486373Y1567835D1*
X1485419Y1567511D1*
X1484431Y1567314D1*
X1483426Y1567249D1*
X1483407D1*
G37*
X1533558Y1565750D2*
D10*
Y1447645D1*
X1553243D1*
Y1565750D1*
X1533558D1*
X671638Y1605141D2*
D14*
X651165D1*
X671636Y1660259D2*
X651164D1*
X678638Y1766141D2*
X658166D1*
X678636Y1821259D2*
X658164D1*
X1542306Y1757960D2*
X1530495D1*
X1542306Y1815440D2*
X1530495D1*
X1311661Y1591794D2*
Y1603605D1*
X1369141Y1591795D2*
Y1603606D1*
X1374661Y506794D2*
Y518606D1*
X1432141Y506794D2*
Y518606D1*
X1378204Y455220D2*
X1428598D1*
X1487842Y908464D2*
Y928936D1*
X1542960Y908464D2*
Y928936D1*
G36*
X1280038Y1436579D2*
X1280775Y1436947D1*
X1282251Y1438054D1*
X1284094Y1439529D1*
X1285570Y1440635D1*
X1291101Y1445061D1*
X1297739Y1450592D1*
X1303640Y1455755D1*
X1308065Y1459812D1*
Y1460180D1*
X1303271Y1464606D1*
X1300321Y1467187D1*
X1295158Y1471612D1*
X1292945Y1473456D1*
X1283726Y1480832D1*
X1280775Y1483044D1*
X1278932Y1484520D1*
X1274506Y1487839D1*
X1273400Y1488576D1*
X1270450Y1490789D1*
X1269343Y1491526D1*
X1267868Y1492633D1*
X1265656Y1494108D1*
X1264181Y1495214D1*
X1261968Y1496689D1*
X1260493Y1497795D1*
X1252748Y1502958D1*
X1250905Y1504065D1*
X1247586Y1506277D1*
X1245742Y1507384D1*
X1244635Y1508121D1*
X1242792Y1509228D1*
X1241685Y1509965D1*
X1236154Y1513284D1*
X1233572Y1514759D1*
X1231728Y1515865D1*
X1226565Y1518816D1*
X1218452Y1523241D1*
X1201489Y1531723D1*
X1196695Y1533935D1*
X1190057Y1536886D1*
X1188213Y1537623D1*
X1183050Y1539836D1*
X1181206Y1540573D1*
X1178256Y1541680D1*
X1176412Y1542417D1*
X1173462Y1543524D1*
X1171618Y1544261D1*
X1165349Y1546474D1*
X1156498Y1549424D1*
X1151704Y1550899D1*
X1143960Y1553112D1*
X1135109Y1555324D1*
X1130315Y1556431D1*
X1126996Y1557168D1*
X1121464Y1558275D1*
X1117408Y1559012D1*
X1115195Y1559381D1*
X1110401Y1560119D1*
X1105238Y1560856D1*
X1102288Y1561225D1*
X1098969Y1561594D1*
X1094913Y1561962D1*
X1090487Y1562331D1*
X1084956Y1562700D1*
X1059510D1*
X1053978Y1562331D1*
X1049553Y1561962D1*
X1045497Y1561594D1*
X1042178Y1561225D1*
X1039227Y1560856D1*
X1034065Y1560119D1*
X1029270Y1559381D1*
X1027058Y1559012D1*
X1023001Y1558275D1*
X1017470Y1557168D1*
X1010832Y1555693D1*
X1007881Y1554956D1*
X1066517D1*
X1070327Y1555324D1*
X1074138D1*
X1077949Y1554956D1*
X1082743Y1554587D1*
X1087906Y1553849D1*
X1090118Y1553481D1*
X1091962Y1553112D1*
X1093437Y1552743D1*
X1095281Y1552374D1*
X1096756Y1552006D1*
X1097863Y1551637D1*
X1101550Y1550530D1*
X1107082Y1548687D1*
X1107820Y1548318D1*
X1111139Y1546843D1*
X1112245Y1546474D1*
X1118145Y1543524D1*
X1118514Y1543155D1*
X1121096Y1541680D1*
X1122939Y1540573D1*
X1127365Y1537623D1*
X1130315Y1535411D1*
X1132159Y1533935D1*
X1134740Y1531723D1*
X1135478Y1531354D1*
X1138797Y1528035D1*
X1129946Y1527666D1*
X1126627Y1527298D1*
X1124415Y1526929D1*
X1120727Y1526191D1*
X1113351Y1524347D1*
X1103394Y1521028D1*
X1101550Y1520291D1*
X1098600Y1519184D1*
X1093437Y1516972D1*
X1090118Y1515497D1*
X1082374Y1511809D1*
X1080899Y1511071D1*
X1073892Y1507384D1*
X1070573Y1505540D1*
X1062829Y1501114D1*
X1059141Y1498902D1*
X1058035Y1498164D1*
X1056191Y1497058D1*
X1052872Y1494845D1*
X1051766Y1493739D1*
X1051028Y1492264D1*
X1050291Y1491157D1*
X1049553Y1489682D1*
X1048816Y1488576D1*
X1048447Y1487839D1*
X1047709Y1486732D1*
X1046972Y1485257D1*
X1046234Y1484151D1*
X1045497Y1482676D1*
X1044759Y1481569D1*
X1044021Y1480094D1*
X1043284Y1478988D1*
X1042915Y1478250D1*
X1042178Y1477144D1*
X1041440Y1475669D1*
X1040702Y1474563D1*
X1039965Y1473087D1*
X1039227Y1471981D1*
X1038490Y1470506D1*
X1037752Y1469400D1*
X1037384Y1468662D1*
X1036646Y1467556D1*
X1035722Y1465711D1*
X1035508Y1465326D1*
X1035148Y1464942D1*
X1034958Y1465002D1*
X1034802Y1465343D1*
Y1490420D1*
X1035171Y1490789D1*
X1035540Y1497058D1*
X1035908Y1501852D1*
X1036277Y1505171D1*
X1036646Y1508859D1*
X1037752Y1516603D1*
X1038121Y1518447D1*
X1038490Y1520660D1*
X1038859Y1522503D1*
X1039227Y1523979D1*
X1039596Y1525822D1*
X1040702Y1530248D1*
X1041071Y1531354D1*
X1041440Y1532829D1*
X1043284Y1538361D1*
X1043653Y1539098D1*
X1044021Y1540205D1*
X1044390Y1540942D1*
X1044759Y1542049D1*
X1046972Y1546474D1*
X1047709Y1547580D1*
X1048078Y1548318D1*
X1049553Y1550530D1*
X1051028Y1552374D1*
Y1552743D1*
X1052503Y1553112D1*
X1054347Y1553481D1*
X1058772Y1554218D1*
X1061723Y1554587D1*
X1066517Y1554956D1*
X1007881D1*
X1000506Y1553112D1*
X995343Y1551637D1*
X1046234D1*
X1046510Y1551874D1*
X1046696Y1551843D1*
X1046906Y1551538D1*
X1046972Y1551268D1*
X1045865Y1550162D1*
X1045497Y1549424D1*
X1044759Y1548318D1*
X1042178Y1543155D1*
X1041809Y1542049D1*
X1041071Y1540573D1*
X1039965Y1537254D1*
X1039596Y1536517D1*
X1039227Y1535042D1*
X1038121Y1531723D1*
X1036646Y1525822D1*
X1036277Y1523979D1*
X1035908Y1522503D1*
X1035540Y1520660D1*
X1034433Y1514022D1*
X1034065Y1511440D1*
X1033696Y1508490D1*
X1033327Y1505171D1*
X1032958Y1501483D1*
X1032589Y1496689D1*
X1032221Y1490789D1*
Y1462024D1*
X1032589Y1459812D1*
X1033696Y1457599D1*
X1034433Y1456493D1*
X1035171Y1455017D1*
X1035908Y1453911D1*
X1036277Y1453174D1*
X1037015Y1452067D1*
X1037752Y1450592D1*
X1038490Y1449486D1*
X1039227Y1448011D1*
X1039965Y1446904D1*
X1040702Y1445429D1*
X1041440Y1444323D1*
X1041809Y1443585D1*
X1042546Y1442479D1*
X1043284Y1441004D1*
X1044021Y1439898D1*
X1044759Y1438423D1*
X1045497Y1437316D1*
X1046234Y1435841D1*
X1046972Y1434735D1*
X1047340Y1433997D1*
X1048078Y1432891D1*
X1048816Y1431416D1*
X1049553Y1430678D1*
X1049103Y1430293D1*
X1048677Y1430341D1*
X1048447Y1430678D1*
X1045865Y1432153D1*
X1042546Y1433997D1*
X1034802Y1438423D1*
X1033696Y1439160D1*
X1030008Y1441373D1*
X1028902Y1442110D1*
X1027058Y1443217D1*
X1019314Y1448379D1*
X1017838Y1449486D1*
X1016732Y1450223D1*
X1015257Y1451330D1*
X1014151Y1452067D1*
X1012676Y1453174D1*
X1010832Y1454649D1*
X1009357Y1455755D1*
X1007513Y1457230D1*
X1003087Y1460918D1*
X999400Y1464237D1*
X998662Y1464606D1*
X993130Y1470137D1*
Y1470506D1*
X990549Y1473456D1*
X988705Y1475669D1*
X987599Y1477144D1*
X984649Y1481569D1*
X984280Y1482307D1*
X983542Y1483413D1*
X982436Y1485626D1*
X982067Y1486732D1*
X981698Y1487470D1*
X981330Y1487839D1*
Y1488945D1*
X981698Y1489314D1*
X982067Y1490789D1*
X982436Y1491526D1*
X983542Y1494845D1*
X983911Y1495583D1*
X984280Y1496689D1*
X985386Y1498902D1*
X985755Y1500008D1*
X988336Y1505171D1*
X989074Y1506277D1*
X989811Y1507752D1*
X990549Y1508859D1*
X990918Y1509596D1*
X994606Y1515128D1*
X996818Y1518078D1*
X998293Y1519922D1*
X1000506Y1522503D1*
Y1522872D1*
X1009357Y1531723D1*
X1010094Y1532092D1*
X1012307Y1533935D1*
X1014151Y1535411D1*
X1017101Y1537623D1*
X1021526Y1540573D1*
X1023370Y1541680D1*
X1025951Y1543155D1*
X1026320Y1543524D1*
X1032221Y1546474D1*
X1033327Y1546843D1*
X1035908Y1547949D1*
X1037752Y1548687D1*
X1040702Y1549793D1*
X1046234Y1551637D1*
X995343D1*
X992762Y1550899D1*
X987968Y1549424D1*
X976904Y1545736D1*
X972848Y1544261D1*
X971004Y1543524D1*
X965103Y1541311D1*
X961416Y1539836D1*
X956253Y1537623D1*
X954409Y1536886D1*
X947771Y1533935D1*
X942977Y1531723D1*
X926751Y1523610D1*
X921957Y1521028D1*
X917900Y1518816D1*
X912737Y1515865D1*
X910893Y1514759D1*
X908312Y1513284D1*
X902780Y1509965D1*
X901674Y1509228D1*
X899830Y1508121D1*
X898724Y1507384D1*
X896880Y1506277D1*
X893561Y1504065D1*
X891717Y1502958D1*
X882867Y1497058D1*
X881391Y1495952D1*
X879179Y1494476D1*
X877704Y1493370D1*
X876597Y1492633D1*
X875122Y1491526D1*
X874016Y1490789D1*
X871066Y1488576D1*
X869959Y1487839D1*
X865534Y1484520D1*
X864428Y1483413D1*
X979855D1*
X980130Y1483650D1*
X980316Y1483619D1*
X980526Y1483314D1*
X980592Y1483044D1*
X980961Y1482307D1*
X981698Y1481201D1*
X982436Y1479725D1*
X985386Y1475300D1*
X986492Y1473825D1*
X987968Y1471981D1*
X990180Y1469400D1*
X998293Y1461287D1*
X1001243Y1458705D1*
X1003825Y1456493D1*
X1007513Y1453542D1*
X1008988Y1452436D1*
X1010832Y1450961D1*
X1011938Y1450223D1*
X1014888Y1448011D1*
X1015995Y1447273D1*
X1017470Y1446167D1*
X1025214Y1441004D1*
X1027058Y1439898D1*
X1029270Y1438423D1*
X1034802Y1435104D1*
X1037384Y1433628D1*
X1039227Y1432522D1*
X1041809Y1431047D1*
X1045865Y1428834D1*
X1052135Y1425515D1*
X1085693Y1424778D1*
X1085324Y1424409D1*
X1084587Y1424040D1*
X1080899Y1421828D1*
X1078318Y1420353D1*
X1076474Y1419246D1*
X1073892Y1417771D1*
X1069836Y1415558D1*
X1069467Y1415190D1*
X1053978Y1407445D1*
X1052872Y1407077D1*
X1049553Y1405601D1*
X1044390Y1403389D1*
X1038490Y1401176D1*
X1037752Y1400807D1*
X1033327Y1399332D1*
X1031852Y1398964D1*
X1029270Y1398226D1*
X1028164Y1397857D1*
X1023739Y1396751D1*
X1020051Y1396013D1*
X1017838Y1395645D1*
X1014519Y1395276D1*
X1011078Y1394907D1*
X1007636D1*
X1004194Y1395276D1*
X1001981Y1395645D1*
X1000506Y1397120D1*
Y1397488D1*
X998293Y1400070D1*
X996818Y1401914D1*
X994606Y1404864D1*
X990918Y1410396D1*
X990549Y1411133D1*
X989811Y1412239D1*
X989074Y1413715D1*
X988336Y1414821D1*
X985755Y1419984D1*
X985386Y1421090D1*
X984649Y1422565D1*
X984280Y1423672D1*
X983542Y1425147D1*
X980961Y1432891D1*
X980592Y1434366D1*
X980223Y1435472D1*
X979486Y1438423D1*
X978379Y1443954D1*
X978011Y1446536D1*
X977642Y1449486D1*
X977273Y1454280D1*
X976904Y1454649D1*
Y1465343D1*
X977273Y1465712D1*
X977642Y1470506D1*
X978011Y1473456D1*
X978379Y1476038D1*
X979486Y1481569D1*
X979855Y1483044D1*
Y1483413D1*
X864428D1*
X863690Y1483044D1*
X860740Y1480832D1*
X851521Y1473456D1*
X849308Y1471612D1*
X844145Y1467187D1*
X841195Y1464606D1*
X836401Y1460180D1*
Y1459812D1*
X840826Y1455755D1*
X844145Y1452805D1*
X846727Y1450592D1*
X853364Y1445061D1*
X858896Y1440635D1*
X860371Y1439529D1*
X862215Y1438054D1*
X872541Y1430309D1*
X873647Y1429572D1*
X876597Y1427359D1*
X879916Y1425147D1*
X881391Y1424040D1*
X885817Y1421090D1*
X887292Y1419984D1*
X889504Y1418509D1*
X891348Y1417402D1*
X895774Y1414452D1*
X897618Y1413346D1*
X898724Y1412608D1*
X900568Y1411502D1*
X901674Y1410764D1*
X910893Y1405233D1*
X918638Y1400807D1*
X921957Y1398964D1*
X928226Y1395645D1*
X929701Y1394907D1*
X1028164D1*
X1029639Y1395276D1*
X1032221Y1396013D1*
X1039965Y1398595D1*
X1041809Y1399332D1*
X1044759Y1400439D1*
X1046603Y1401176D1*
X1049184Y1402283D1*
X1051028Y1403020D1*
X1054347Y1404495D1*
X1069836Y1412239D1*
X1076474Y1415927D1*
X1079055Y1417402D1*
X1088275Y1422934D1*
X1091594Y1425147D1*
X1092331Y1425884D1*
X1093069Y1426990D1*
X1093437Y1427728D1*
X1094175Y1428834D1*
X1094913Y1430309D1*
X1095650Y1431416D1*
X1096388Y1432891D1*
X1097125Y1433997D1*
X1097494Y1434735D1*
X1098231Y1435841D1*
X1098969Y1437316D1*
X1099707Y1438423D1*
X1100444Y1439898D1*
X1101182Y1441004D1*
X1101919Y1442479D1*
X1102657Y1443585D1*
X1103026Y1444323D1*
X1103763Y1445429D1*
X1104501Y1446904D1*
X1105238Y1448011D1*
X1105976Y1449486D1*
X1106713Y1450592D1*
X1107451Y1452067D1*
X1108188Y1453174D1*
X1108743Y1454278D1*
X1108943Y1454618D1*
X1109205Y1454879D1*
X1109393Y1454862D1*
X1109664Y1454649D1*
Y1429941D1*
X1109295Y1429572D1*
X1108926Y1422934D1*
X1108557Y1418509D1*
X1107820Y1411133D1*
X1107082Y1405970D1*
X1105976Y1399332D1*
X1105607Y1397488D1*
X1105238Y1396013D1*
X1104869Y1394169D1*
X1103763Y1389744D1*
X1103394Y1388638D1*
X1103026Y1387163D1*
X1101182Y1381631D1*
X1100813Y1380894D1*
X1100444Y1379787D1*
X1100075Y1379050D1*
X1099707Y1377943D1*
X1097494Y1373518D1*
X1096756Y1372412D1*
X1096388Y1371674D1*
X1095650Y1370568D1*
X1093437Y1367618D1*
Y1367249D1*
X1091962Y1366880D1*
X1089750Y1366511D1*
X1087906Y1366142D1*
X1085324Y1365774D1*
X1082374Y1365405D1*
X1077949Y1365036D1*
X1074138Y1364667D1*
X1070327D1*
X1066517Y1365036D1*
X1061723Y1365405D1*
X1056560Y1366142D1*
X1049184Y1367618D1*
X1048078Y1367986D1*
X1045128Y1368724D1*
X1038490Y1370937D1*
X1037752Y1371305D1*
X1035908Y1372043D1*
X1032589Y1373518D1*
X1031483Y1373887D1*
X1027058Y1376099D1*
X1026689Y1376468D1*
X1023370Y1378312D1*
X1021526Y1379418D1*
X1018207Y1381631D1*
X1016732Y1382737D1*
X1015626Y1383475D1*
X1014151Y1384581D1*
X1012307Y1386056D1*
X1009725Y1388269D1*
X1008988Y1388638D1*
X1005669Y1391957D1*
X1014519Y1392326D1*
X1017838Y1392694D1*
X1020051Y1393063D1*
X1021895Y1393432D1*
X1025214Y1394169D1*
X1028164Y1394907D1*
X929701D1*
X941502Y1389007D1*
X947033Y1386425D1*
X953671Y1383475D1*
X958834Y1381262D1*
X968054Y1377575D1*
X973954Y1375362D1*
X979117Y1373518D1*
X985755Y1371305D1*
X991655Y1369461D1*
X999400Y1367249D1*
X1003456Y1366142D1*
X1009357Y1364667D1*
X1019314Y1362455D1*
X1025214Y1361348D1*
X1031852Y1360242D1*
X1036646Y1359505D1*
X1042178Y1358767D1*
X1049553Y1358029D1*
X1053978Y1357661D1*
X1059879Y1357292D1*
X1084587D1*
X1090487Y1357661D1*
X1094913Y1358029D1*
X1102288Y1358767D1*
X1107820Y1359505D1*
X1112614Y1360242D1*
X1119252Y1361348D1*
X1125152Y1362455D1*
X1135109Y1364667D1*
X1141009Y1366142D1*
X1145066Y1367249D1*
X1150229Y1368724D1*
X1099338D1*
X1098723Y1368355D1*
X1098109D1*
X1097494Y1368724D1*
X1098600Y1369830D1*
X1099338Y1371305D1*
X1100075Y1372412D1*
X1102288Y1376837D1*
X1102657Y1377943D1*
X1103026Y1378681D1*
X1103394Y1379787D1*
X1103763Y1380525D1*
X1104501Y1382737D1*
X1104869Y1383475D1*
X1105238Y1384950D1*
X1106345Y1388269D1*
X1107820Y1394169D1*
X1108188Y1396013D1*
X1108557Y1397488D1*
X1108926Y1399701D1*
X1109295Y1401545D1*
X1110032Y1405970D1*
X1110401Y1408552D1*
X1110770Y1411502D1*
X1111139Y1414821D1*
X1111507Y1418509D1*
X1111876Y1423303D1*
X1112245Y1429572D1*
Y1457968D1*
X1111876Y1460180D1*
X1110770Y1462393D1*
X1110032Y1463499D1*
X1109295Y1464974D1*
X1108557Y1466081D1*
X1107820Y1467556D1*
X1107082Y1468662D1*
X1106713Y1469400D1*
X1105976Y1470506D1*
X1105238Y1471981D1*
X1104501Y1473087D1*
X1103763Y1474563D1*
X1103026Y1475669D1*
X1102657Y1476406D1*
X1101919Y1477513D1*
X1101182Y1478988D1*
X1100444Y1480094D1*
X1099707Y1481569D1*
X1098969Y1482676D1*
X1098231Y1484151D1*
X1097494Y1485257D1*
X1097125Y1485995D1*
X1096388Y1487101D1*
X1095650Y1488576D1*
X1094913Y1489314D1*
X1095307Y1489534D1*
X1095627Y1489510D1*
X1096019Y1489314D1*
X1102657Y1485626D1*
X1105238Y1484151D1*
X1107082Y1483044D1*
X1109664Y1481569D1*
X1113351Y1479357D1*
X1115564Y1477882D1*
X1117408Y1476775D1*
X1126258Y1470875D1*
X1129209Y1468662D1*
X1130315Y1467925D1*
X1131790Y1466818D1*
X1133634Y1465343D1*
X1135109Y1464237D1*
X1138797Y1461287D1*
X1141378Y1459074D1*
X1144697Y1456124D1*
X1145435Y1455755D1*
X1151335Y1449855D1*
Y1449486D1*
X1154285Y1446167D1*
X1155760Y1444323D1*
X1157973Y1441373D1*
X1158711Y1440266D1*
X1159079Y1439529D1*
X1159817Y1438423D1*
X1160186Y1437685D1*
X1160923Y1436579D1*
X1162030Y1434366D1*
X1162398Y1433260D1*
X1162767Y1432522D1*
X1163136Y1432153D1*
Y1431047D1*
X1162767Y1430678D1*
X1161292Y1426253D1*
X1160923Y1425515D1*
X1160555Y1424409D1*
X1160186Y1423672D1*
X1159817Y1422565D1*
X1159079Y1421090D1*
X1158711Y1419984D1*
X1156498Y1415558D1*
X1155760Y1414452D1*
X1154654Y1412239D1*
X1153917Y1411133D1*
X1153548Y1410396D1*
X1150598Y1405970D1*
X1149491Y1404495D1*
X1148754Y1403389D1*
X1145804Y1399701D1*
X1143960Y1397488D1*
Y1397120D1*
X1135478Y1388638D1*
X1134740Y1388269D1*
X1132528Y1386425D1*
X1128840Y1383475D1*
X1127734Y1382737D1*
X1126258Y1381631D1*
X1122939Y1379418D1*
X1117777Y1376468D1*
X1117408Y1376099D1*
X1112245Y1373518D1*
X1111139Y1373149D1*
X1108557Y1372043D1*
X1106713Y1371305D1*
X1099338Y1368724D1*
X1150229D1*
X1152810Y1369461D1*
X1158711Y1371305D1*
X1165349Y1373518D1*
X1170512Y1375362D1*
X1176412Y1377575D1*
X1183787Y1380525D1*
X1186369Y1381631D1*
X1188213Y1382369D1*
X1190794Y1383475D1*
X1197432Y1386425D1*
X1202964Y1389007D1*
X1216240Y1395645D1*
X1222509Y1398964D1*
X1225828Y1400807D1*
X1233572Y1405233D1*
X1242792Y1410764D1*
X1243898Y1411502D1*
X1245742Y1412608D1*
X1246848Y1413346D1*
X1248692Y1414452D1*
X1253117Y1417402D1*
X1254961Y1418509D1*
X1256067Y1419246D1*
X1257543Y1420353D1*
X1263074Y1424040D1*
X1264549Y1425147D1*
X1267868Y1427359D1*
X1270818Y1429572D1*
X1271925Y1430309D1*
X1279300Y1435841D1*
X1280038Y1436579D1*
X1164611D1*
X1164220Y1436178D1*
X1164030Y1436237D1*
X1163793Y1436643D1*
X1163874Y1436947D1*
X1163136Y1438423D1*
X1162398Y1439529D1*
X1162030Y1440266D1*
X1159079Y1444692D1*
X1157973Y1446167D1*
X1156498Y1448011D1*
X1154285Y1450592D1*
X1145804Y1459074D1*
X1142853Y1461655D1*
X1138428Y1465343D1*
X1136953Y1466450D1*
X1135109Y1467925D1*
X1132159Y1470137D1*
X1131053Y1470875D1*
X1129577Y1471981D1*
X1128471Y1472719D1*
X1126996Y1473825D1*
X1118145Y1479725D1*
X1116301Y1480832D1*
X1115195Y1481569D1*
X1107820Y1485995D1*
X1102657Y1488945D1*
X1099338Y1490789D1*
X1093069Y1494108D1*
X1092331Y1494476D1*
X1058772Y1495214D1*
X1059141Y1495583D1*
X1059879Y1495952D1*
X1065410Y1499271D1*
X1070573Y1502221D1*
X1073892Y1504065D1*
X1079424Y1507015D1*
X1080899Y1507752D1*
X1081268Y1508121D1*
X1082005Y1508490D1*
X1083112Y1508859D1*
X1083480Y1509228D1*
X1084956Y1509965D1*
X1086062Y1510334D1*
X1092331Y1513284D1*
X1095650Y1514759D1*
X1098231Y1515865D1*
X1103763Y1518078D1*
X1104501Y1518447D1*
X1112245Y1521028D1*
X1113720Y1521397D1*
X1114826Y1521766D1*
X1122202Y1523610D1*
X1126627Y1524347D1*
X1129946Y1524716D1*
X1133511Y1525085D1*
X1137076D1*
X1140641Y1524716D1*
X1142485Y1524347D1*
X1143960Y1522872D1*
Y1522503D1*
X1146172Y1519922D1*
X1147647Y1518078D1*
X1149860Y1515128D1*
X1153548Y1509596D1*
X1153917Y1508859D1*
X1154654Y1507752D1*
X1155392Y1506277D1*
X1156129Y1505171D1*
X1158711Y1500008D1*
X1159079Y1498902D1*
X1159817Y1497427D1*
X1160186Y1496320D1*
X1160923Y1494845D1*
X1162030Y1491526D1*
X1162398Y1490789D1*
X1162767Y1489314D1*
X1163874Y1485995D1*
X1164980Y1481569D1*
X1166086Y1476038D1*
X1166455Y1473456D1*
X1166824Y1470506D1*
X1167193Y1465712D1*
X1167561Y1465343D1*
Y1454649D1*
X1167193Y1454280D1*
X1166824Y1449486D1*
X1166086Y1444323D1*
X1165717Y1442110D1*
X1164980Y1438423D1*
X1164611Y1436947D1*
Y1436579D1*
X1280038D1*
G37*
X1338033Y782780D2*
D40*
X1363899D1*
X1372454Y785632D1*
X1375373Y788550D1*
X1378225Y794254D1*
Y802876D1*
X1375373Y808579D1*
X1372454Y811498D1*
X1363899Y814350D1*
X1338033D1*
Y754062D1*
X1396752Y814350D2*
X1399604Y811498D1*
X1402522Y814350D1*
X1399604Y817268D1*
X1396752Y814350D1*
X1399604Y794254D2*
Y754062D1*
X1421049Y794254D2*
Y754062D1*
Y782780D2*
X1429671Y791402D1*
X1435441Y794254D1*
X1443997D1*
X1449767Y791402D1*
X1452619Y782780D1*
Y754062D1*
X1471146Y777009D2*
X1505568D1*
Y782780D1*
X1502716Y788550D1*
X1499864Y791402D1*
X1494094Y794254D1*
X1485472D1*
X1479768Y791402D1*
X1473998Y785632D1*
X1471146Y777009D1*
Y771306D1*
X1473998Y762684D1*
X1479768Y756980D1*
X1485472Y754062D1*
X1494094D1*
X1499864Y756980D1*
X1505568Y762684D1*
X1561369Y814350D2*
X1524095D1*
Y754062D1*
X1561369D1*
X1524095Y785632D2*
X1547043D1*
X1582814Y794254D2*
X1599992Y754062D1*
X1594288Y742588D1*
X1588518Y736817D1*
X1582814Y733966D1*
X1579896D1*
X1617236Y794254D2*
X1599992Y754062D1*
X1635763Y777009D2*
X1670185D1*
Y782780D1*
X1667333Y788550D1*
X1664481Y791402D1*
X1658711Y794254D1*
X1650089D1*
X1644385Y791402D1*
X1638615Y785632D1*
X1635763Y777009D1*
Y771306D1*
X1638615Y762684D1*
X1644385Y756980D1*
X1650089Y754062D1*
X1658711D1*
X1664481Y756980D1*
X1670185Y762684D1*
X1338033Y676395D2*
X1363832D1*
X1372454Y679313D1*
X1375373Y682165D1*
X1378225Y687869D1*
Y693639D1*
X1375373Y699342D1*
X1372454Y702261D1*
X1363832Y705113D1*
X1338033D1*
Y644825D1*
X1358129Y676395D2*
X1378225Y644825D1*
X1396752Y667773D2*
X1431174D1*
Y673543D1*
X1428322Y679313D1*
X1425470Y682165D1*
X1419700Y685017D1*
X1411078D1*
X1405374Y682165D1*
X1399604Y676395D1*
X1396752Y667773D1*
Y662069D1*
X1399604Y653447D1*
X1405374Y647743D1*
X1411078Y644825D1*
X1419700D1*
X1425470Y647743D1*
X1431174Y653447D1*
X1449701Y685017D2*
X1466945Y644825D1*
X1484122Y685017D1*
X1560971Y693572D2*
X1566741Y696491D1*
X1575363Y705046D1*
Y644825D1*
X1596742Y650595D2*
X1593890Y647676D1*
X1596742Y644825D1*
X1599660Y647676D1*
X1596742Y650595D1*
X1635431Y705046D2*
X1626809Y702194D1*
X1621039Y693572D1*
X1618187Y679246D1*
Y670624D1*
X1621039Y656299D1*
X1626809Y647676D1*
X1635431Y644825D1*
X1641135D1*
X1649757Y647676D1*
X1655461Y656299D1*
X1658379Y670624D1*
Y679246D1*
X1655461Y693572D1*
X1649757Y702194D1*
X1641135Y705046D1*
X1635431D1*
X1655461Y693572D2*
X1621039Y656299D1*
X601182Y1251738D2*
D39*
X603559Y1246985D1*
X608367Y1242176D1*
X613120Y1239800D1*
X622682D1*
X627490Y1242176D1*
X632244Y1246985D1*
X634676Y1251738D1*
X637052Y1258923D1*
Y1270917D1*
X634676Y1278046D1*
X632244Y1282855D1*
X627490Y1287608D1*
X622682Y1290040D1*
X613120D1*
X608367Y1287608D1*
X603559Y1282855D1*
X601182Y1278046D1*
X585743Y1249417D2*
X580934Y1246985D1*
X573749Y1239855D1*
Y1290040D1*
X611934Y768738D2*
X614311Y763985D1*
X619119Y759177D1*
X623873Y756800D1*
X633434D1*
X638243Y759177D1*
X642996Y763986D1*
X645428Y768739D1*
X647804Y775924D1*
Y787917D1*
X645427Y795047D1*
X642995Y799856D1*
X638242Y804609D1*
X633433Y807040D1*
X623872D1*
X619118Y804608D1*
X614310Y799855D1*
X611934Y795046D1*
X594063Y768793D2*
Y766416D1*
X591687Y761608D1*
X589310Y759231D1*
X584502Y756855D1*
X574940Y756854D1*
X570187Y759231D1*
X567810Y761607D1*
X565378Y766416D1*
Y771169D1*
X567810Y775977D1*
X572563Y783107D1*
X596494Y807040D1*
X563001Y807039D1*
X611934Y943738D2*
X614311Y938985D1*
X619119Y934177D1*
X623873Y931800D1*
X633434D1*
X638243Y934177D1*
X642996Y938986D1*
X645428Y943739D1*
X647804Y950924D1*
Y962917D1*
X645427Y970047D1*
X642995Y974856D1*
X638242Y979609D1*
X633433Y982040D1*
X623872D1*
X619118Y979608D1*
X614310Y974855D1*
X611934Y970046D1*
X591687Y931855D2*
X565434Y931854D1*
X579748Y950978D1*
X572563D1*
X567810Y953354D1*
X565433Y955731D1*
X563001Y962916D1*
Y967669D1*
X565433Y974854D1*
X570186Y979662D1*
X577371Y982039D1*
X584556D1*
X591686Y979663D1*
X594062Y977231D1*
X596494Y972478D1*
X613122Y1097738D2*
X615499Y1092985D1*
X620308Y1088177D1*
X625061Y1085800D1*
X634623D1*
X639431Y1088177D1*
X644184Y1092986D1*
X646616Y1097739D1*
X648992Y1104924D1*
Y1116917D1*
X646615Y1124047D1*
X644183Y1128856D1*
X639430Y1133609D1*
X634621Y1136040D1*
X625060D1*
X620307Y1133608D1*
X615498Y1128855D1*
X613122Y1124046D1*
X573751Y1136039D2*
X573752Y1085854D1*
X597683Y1119293D1*
X561813Y1119292D1*
X1109090Y571477D2*
Y609723D1*
X1111466Y616908D1*
X1113898Y619285D1*
X1118651Y621717D1*
X1123460D1*
X1128213Y619285D1*
X1130589Y616908D1*
X1133021Y609723D1*
Y604970D1*
X1069719Y621717D2*
Y571532D1*
X1093650Y604970D1*
X1057780D1*
X1589187Y1320166D2*
X1589188Y1298666D1*
X1591620Y1291482D1*
X1593997Y1289050D1*
X1598750Y1286673D1*
X1603558Y1286674D1*
X1608312Y1289050D1*
X1610743Y1291482D1*
X1613120Y1298667D1*
X1613119Y1320167D1*
X1562879Y1320165D1*
X1589188Y1303420D2*
X1562880Y1286672D1*
X1603504Y1271234D2*
X1605936Y1266426D1*
X1613066Y1259241D1*
X1562881Y1259239D1*
X1589186Y1148917D2*
X1589187Y1127418D1*
X1591619Y1120233D1*
X1593996Y1117801D1*
X1598749Y1115425D1*
X1603558D1*
X1608311Y1117802D1*
X1610743Y1120234D1*
X1613119Y1127419D1*
X1613118Y1148919D1*
X1562878Y1148916D1*
X1589187Y1132171D2*
X1562879Y1115423D1*
X1601127Y1097554D2*
X1603504D1*
X1608312Y1095177D1*
X1610689Y1092801D1*
X1613066Y1087993D1*
Y1078431D1*
X1610690Y1073678D1*
X1608313Y1071301D1*
X1603505Y1068869D1*
X1598752D1*
X1593943Y1071300D1*
X1586813Y1076053D1*
X1562880Y1099983D1*
X1562882Y1066490D1*
X1175615Y464484D2*
X1175614Y485984D1*
X1173182Y493169D1*
X1170805Y495601D1*
X1166052Y497977D1*
X1161244D1*
X1156490Y495600D1*
X1154059Y493169D1*
X1151682Y485983D1*
X1151683Y464484D1*
X1201923Y464485D1*
X1175614Y481231D2*
X1201922Y497979D1*
X1151737Y518225D2*
X1151736Y544478D1*
X1170859Y530163D1*
Y537349D1*
X1173236Y542102D1*
X1175612Y544478D1*
X1182797Y546911D1*
X1187550D1*
X1194735Y544479D1*
X1199544Y539726D1*
X1201921Y532541D1*
Y525356D1*
X1199545Y518226D1*
X1197113Y515850D1*
X1192360Y513418D1*
X1028615Y463296D2*
X1028614Y484796D1*
X1026182Y491981D1*
X1023805Y494413D1*
X1019052Y496789D1*
X1014244D1*
X1009490Y494412D1*
X1007059Y491980D1*
X1004682Y484795D1*
X1004683Y463295D1*
X1054923Y463297D1*
X1028614Y480043D2*
X1054922Y496790D1*
X1054921Y536161D2*
X1004736Y536160D1*
X1038175Y512229D1*
X1038174Y548099D1*
X860614Y464486D2*
Y485985D1*
X858182Y493170D1*
X855805Y495602D1*
X851052Y497979D1*
X846243D1*
X841490Y495602D1*
X839058Y493170D1*
X836682Y485985D1*
Y464485D1*
X886922Y464486D1*
X860614Y481232D2*
X886922Y497979D1*
X836736Y542103D2*
X836737Y518226D1*
X858237Y515850D1*
X855860Y518227D1*
X853428Y525411D1*
Y532541D1*
X855860Y539726D1*
X860613Y544535D1*
X867798Y546912D1*
X872551D1*
X879736Y544535D1*
X884544Y539727D1*
X886921Y532542D1*
Y525412D1*
X884545Y518227D1*
X882113Y515850D1*
X877360Y513418D1*
X699614Y465701D2*
Y487201D1*
X697182Y494386D1*
X694805Y496818D1*
X690052Y499195D1*
X685243D1*
X680490Y496818D1*
X678058Y494386D1*
X675682Y487201D1*
Y465701D1*
X725922Y465702D1*
X699614Y482448D2*
X725922Y499195D1*
X682866Y543319D2*
X678113Y540942D1*
X675736Y533757D1*
Y529004D1*
X678113Y521819D1*
X685298Y517010D1*
X697237Y514634D1*
X709175D1*
X718736Y517011D1*
X723545Y521820D1*
X725921Y529005D1*
Y531381D1*
X723544Y538511D1*
X718736Y543319D1*
X711551Y545696D1*
X709174D1*
X701989Y543319D1*
X697236Y538510D1*
X694860Y531381D1*
Y529004D1*
X697236Y521819D1*
X701990Y517011D1*
X709175Y514634D1*
X810233Y1059497D2*
X846103D1*
X853288Y1061873D1*
X858041Y1066682D1*
X860473Y1073867D1*
Y1078620D1*
X858041Y1085805D1*
X853288Y1090614D1*
X846103Y1092990D1*
X810233D1*
X819850Y1108429D2*
X817418Y1113238D1*
X810288Y1120423D1*
X860473D1*
X1102366Y1724422D2*
Y1762668D1*
X1104742Y1769853D1*
X1107174Y1772230D1*
X1111927Y1774662D1*
X1116736D1*
X1121489Y1772230D1*
X1123866Y1769853D1*
X1126298Y1762668D1*
Y1757915D1*
X1058242Y1724477D2*
X1082118D1*
X1084495Y1745977D1*
X1082118Y1743600D1*
X1074933Y1741168D1*
X1067803D1*
X1060618Y1743600D1*
X1055810Y1748354D1*
X1053433Y1755539D1*
Y1760292D1*
X1055810Y1767477D1*
X1060618Y1772285D1*
X1067803Y1774662D1*
X1074933D1*
X1082118Y1772285D1*
X1084495Y1769853D1*
X1086927Y1765100D1*
X1501312Y1655876D2*
Y1620006D1*
X1503689Y1612821D1*
X1508498Y1608068D1*
X1515683Y1605636D1*
X1520436D1*
X1527621Y1608068D1*
X1532429Y1612821D1*
X1534806Y1620006D1*
Y1655876D1*
X1552677Y1643882D2*
Y1646259D1*
X1555054Y1651067D1*
X1557430Y1653444D1*
X1562239Y1655821D1*
X1571800D1*
X1576553Y1653444D1*
X1578930Y1651067D1*
X1581362Y1646259D1*
Y1641506D1*
X1578930Y1636697D1*
X1574177Y1629568D1*
X1550245Y1605636D1*
X1583738D1*
X702616Y1551913D2*
X681116D1*
X673931Y1549481D1*
X671499Y1547104D1*
X669122Y1542351D1*
X669123Y1537543D1*
X671499Y1532790D1*
X673931Y1530358D1*
X681116Y1527981D1*
X702616Y1527982D1*
X702615Y1578222D1*
X685869Y1551913D2*
X669122Y1578221D1*
X644121Y1578220D2*
X620190Y1528035D1*
X653683Y1528036D1*
X709589Y1712914D2*
X688089Y1712913D1*
X680904Y1710481D1*
X678473Y1708104D1*
X676096Y1703351D1*
Y1698543D1*
X678473Y1693790D1*
X680905Y1691358D1*
X688090Y1688982D1*
X709590D1*
X709588Y1739222D1*
X692842Y1712913D2*
X676095Y1739221D1*
X648719Y1689035D2*
X655849Y1691412D1*
X658281Y1696166D1*
X658280Y1700974D1*
X655848Y1705727D1*
X651095Y1708159D1*
X641533Y1710535D1*
X634348Y1712911D1*
X629595Y1717720D1*
X627218Y1722473D1*
Y1729658D1*
X629594Y1734411D1*
X631971Y1736843D1*
X639156Y1739220D1*
X648717D1*
X655847Y1736844D1*
X658279Y1734412D1*
X660656Y1729659D1*
Y1722474D1*
X658280Y1717721D1*
X653471Y1712912D1*
X646342Y1710535D1*
X636780Y1708158D1*
X631972Y1705726D1*
X629595Y1700973D1*
X629596Y1696164D1*
X631972Y1691411D1*
X639158Y1689035D1*
X648719D1*
X1542932Y1692738D2*
X1545309Y1687985D1*
X1550117Y1683176D1*
X1554870Y1680800D1*
X1564432D1*
X1569240Y1683176D1*
X1573994Y1687985D1*
X1576425Y1692738D1*
X1578802Y1699923D1*
Y1711917D1*
X1576425Y1719046D1*
X1573994Y1723855D1*
X1569240Y1728608D1*
X1564432Y1731040D1*
X1554870D1*
X1550117Y1728608D1*
X1545309Y1723855D1*
X1542932Y1719046D1*
X1498808Y1680855D2*
X1522684D1*
X1525061Y1702355D1*
X1522684Y1699978D1*
X1515499Y1697546D1*
X1508370D1*
X1501185Y1699978D1*
X1496376Y1704731D1*
X1494000Y1711917D1*
Y1716670D1*
X1496376Y1723855D1*
X1501185Y1728663D1*
X1508370Y1731040D1*
X1515499D1*
X1522684Y1728663D1*
X1525061Y1726231D1*
X1527493Y1721478D1*
X1246439Y1592383D2*
X1241686Y1590006D1*
X1236877Y1585198D1*
X1234501Y1580444D1*
Y1570883D1*
X1236878Y1566074D1*
X1241686Y1561321D1*
X1246439Y1558890D1*
X1253625Y1556513D1*
X1265618D1*
X1272748Y1558890D1*
X1277556Y1561322D1*
X1282309Y1566075D1*
X1284741Y1570884D1*
Y1580445D1*
X1282309Y1585198D1*
X1277556Y1590007D1*
X1272747Y1592383D1*
X1241685Y1636507D2*
X1236932Y1634130D1*
X1234555Y1626945D1*
Y1622192D1*
X1236932Y1615007D1*
X1244117Y1610199D1*
X1256055Y1607822D1*
X1267994Y1607823D1*
X1277555Y1610199D1*
X1282364Y1615008D1*
X1284740Y1622193D1*
Y1624569D1*
X1282363Y1631699D1*
X1277555Y1636508D1*
X1270370Y1638884D1*
X1267993D1*
X1260808Y1636507D1*
X1256055Y1631699D1*
X1253679Y1624569D1*
Y1622192D1*
X1256055Y1615007D1*
X1260809Y1610199D1*
X1267994Y1607823D1*
X1297501Y481253D2*
X1347741D1*
Y497999D1*
X1345309Y505184D1*
X1340556Y509993D1*
X1335747Y512369D1*
X1328617Y514746D1*
X1316624D1*
X1309439Y512369D1*
X1304686Y509993D1*
X1299877Y505184D1*
X1297501Y497999D1*
Y481253D1*
X1307117Y530185D2*
X1304686Y534994D1*
X1297556Y542179D1*
X1347741D1*
X1434613Y878675D2*
Y900175D1*
X1432181Y907360D1*
X1429805Y909792D1*
X1425052Y912169D1*
X1420243D1*
X1415490Y909792D1*
X1413058Y907360D1*
X1410682Y900175D1*
Y878675D1*
X1460922D1*
X1434613Y895422D2*
X1460922Y912169D1*
X1427428Y958725D2*
X1434613Y956293D1*
X1439422Y951540D1*
X1441798Y944355D1*
Y941978D1*
X1439422Y934793D1*
X1434613Y930040D1*
X1427428Y927608D1*
X1425052D1*
X1417867Y930040D1*
X1413114Y934793D1*
X1410737Y941978D1*
Y944355D1*
X1413114Y951540D1*
X1417867Y956293D1*
X1427428Y958725D1*
X1439422D1*
X1451360Y956293D1*
X1458545Y951540D1*
X1460922Y944355D1*
Y939601D1*
X1458545Y932416D1*
X1453737Y930040D1*
M02*
